<?xml version="1.0" ?><svg viewBox="0 0 64 64" xmlns="http://www.w3.org/2000/svg"><title/><g id="flowchart"><path d="M30,50h4a1,1,0,0,0,1-1V46a1,1,0,0,0-1-1H30a1,1,0,0,0-1,1v3A1,1,0,0,0,30,50Zm1-3h2v1H31Z"/><path d="M59,2H5A3,3,0,0,0,2,5V50a3,3,0,0,0,3,3H24l-5.74,7.39A1,1,0,0,0,19,62H45a1,1,0,0,0,.79-1.61L40,53H59a3,3,0,0,0,3-3V5A3,3,0,0,0,59,2ZM4,10H60V42H4ZM4,5A1,1,0,0,1,5,4H59a1,1,0,0,1,1,1V8H4ZM43,60H21l5.44-7h11ZM60,50a1,1,0,0,1-1,1H5a1,1,0,0,1-1-1V44H60Z"/><path d="M10,5H9A1,1,0,0,0,9,7h1a1,1,0,0,0,0-2Z"/><path d="M14,5H13a1,1,0,0,0,0,2h1a1,1,0,0,0,0-2Z"/><path d="M55,5H54a1,1,0,0,0,0,2h1a1,1,0,0,0,0-2Z"/><path d="M17,12H7a1,1,0,0,0-1,1v6a1,1,0,0,0,1,1h4v2H7a1,1,0,0,0-1,1v6a1,1,0,0,0,1,1h4v2H7a1,1,0,0,0-1,1v6a1,1,0,0,0,1,1H17a1,1,0,0,0,1-1V33a1,1,0,0,0-1-1H13V30h4a1,1,0,0,0,1-1V23a1,1,0,0,0-1-1H13V20h4a1,1,0,0,0,1-1V13A1,1,0,0,0,17,12ZM16,38H8V34h8Zm0-10H8V24h8Zm0-10H8V14h8Z"/><path d="M49.48,21.38a1,1,0,1,0-1.36,1.47L51.53,26l-3.41,3.15a1,1,0,1,0,1.36,1.47l4.2-3.89,0,0,0,0a.94.94,0,0,0,.08-.14,1,1,0,0,0,.1-.17,1,1,0,0,0,0-.19.62.62,0,0,0,0-.37,1,1,0,0,0,0-.19,1,1,0,0,0-.1-.17.94.94,0,0,0-.08-.14l0,0,0,0Z"/><path d="M39.93,21.43a1,1,0,0,0-1.41-.05l-4.2,3.89,0,0,0,0a.94.94,0,0,0-.08.14,1,1,0,0,0-.1.17,1,1,0,0,0,0,.19.62.62,0,0,0,0,.37,1,1,0,0,0,0,.19,1,1,0,0,0,.1.17.94.94,0,0,0,.08.14l0,0,0,0,4.2,3.89a1,1,0,1,0,1.36-1.47L36.47,26l3.41-3.15A1,1,0,0,0,39.93,21.43Z"/><path d="M46.14,20.06a1,1,0,0,0-1.28.6l-3.6,10a1,1,0,1,0,1.88.68l3.6-10A1,1,0,0,0,46.14,20.06Z"/><path d="M44,12A14,14,0,1,0,58,26,14,14,0,0,0,44,12Zm0,26A12,12,0,1,1,56,26,12,12,0,0,1,44,38Z"/><path d="M27.92,25.62a1,1,0,0,0-.22-.33l-2-2a1,1,0,0,0-1.41,1.41l.29.29H21a1,1,0,0,0,0,2h3.59l-.29.29a1,1,0,1,0,1.41,1.41l2-2a1,1,0,0,0,.22-1.09Z"/></g></svg>