<?xml version="1.0" ?><!DOCTYPE svg  PUBLIC '-//W3C//DTD SVG 1.1//EN'  'http://www.w3.org/Graphics/SVG/1.1/DTD/svg11.dtd'><svg enable-background="new 0 0 48 48" height="48px" version="1.1" viewBox="0 0 48 48" width="48px" xml:space="preserve" xmlns="http://www.w3.org/2000/svg" xmlns:xlink="http://www.w3.org/1999/xlink"><g id="Pentool"/><g id="Note"><g><path d="M5,20h12v-7H5V20z M7,15h8v3H7V15z"/><rect height="2" width="12" x="5" y="24"/><rect height="2" width="12" x="5" y="28"/><path d="M47,17.586L36.414,7H29V4c0-1.654-1.346-3-3-3h-4c-1.654,0-3,1.346-3,3v3H1v34h20.279l1.772,5.316    C23.188,46.725,23.569,47,24,47s0.813-0.275,0.949-0.684L26.721,41H47V17.586z M37,10.414L43.586,17H37V10.414z M27,33h-6V11h6V33    z M21,4c0-0.551,0.449-1,1-1h4c0.551,0,1,0.449,1,1v5h-6V4z M3,39V9h16v1v1v23c0,0.01,0.005,0.018,0.005,0.027    c0.002,0.097,0.014,0.195,0.046,0.29L20.612,39H3z M24,42.838L21.387,35h5.226L24,42.838z M27.388,39l1.561-4.684    c0.032-0.095,0.043-0.192,0.046-0.29C28.995,34.018,29,34.01,29,34V11v-1V9h6v10h10v20H27.388z"/></g></g><g id="Sketch"/><g id="Settings"/><g id="Sprayer"/><g id="Wacom"/><g id="Stationery"/><g id="Idea"/><g id="Tea"/><g id="Mouse"/><g id="Shape"/><g id="Eyedropper"/><g id="Laptop"/><g id="Print"/><g id="Size"/><g id="Paint"/><g id="Layer_18"/><g id="Layer_19"/><g id="Layer_20"/><g id="Layer_21"/></svg>