<?xml version="1.0" ?><!DOCTYPE svg  PUBLIC '-//W3C//DTD SVG 1.1//EN'  'http://www.w3.org/Graphics/SVG/1.1/DTD/svg11.dtd'><svg enable-background="new 0 0 48 48" height="48px" version="1.1" viewBox="0 0 48 48" width="48px" xml:space="preserve" xmlns="http://www.w3.org/2000/svg" xmlns:xlink="http://www.w3.org/1999/xlink"><g id="Pentool"/><g id="Note"/><g id="Sketch"/><g id="Settings"/><g id="Sprayer"/><g id="Wacom"/><g id="Stationery"/><g id="Idea"><g><path d="M24,8c-6.617,0-12,5.383-12,12c0,3.138,1.394,5.311,2.741,7.413c0.466,0.727,0.948,1.478,1.38,2.276    c0.329,0.608,0.716,2.954,0.886,4.425L17.109,35H30h0.892l0.102-0.885c0.17-1.472,0.558-3.818,0.887-4.426    c0.432-0.798,0.913-1.55,1.379-2.276C34.606,25.311,36,23.138,36,20C36,13.383,30.617,8,24,8z M31.575,26.333    c-0.485,0.757-0.987,1.541-1.455,2.404c-0.476,0.88-0.825,2.999-1.001,4.263H18.88c-0.175-1.264-0.524-3.383-1.001-4.263    c-0.467-0.863-0.969-1.646-1.455-2.404C15.124,24.304,14,22.552,14,20c0-5.514,4.486-10,10-10c5.514,0,10,4.486,10,10    C34,22.552,32.877,24.304,31.575,26.333z"/><rect height="2" width="12" x="18" y="36.818"/><path d="M18,43.182h2.019C20.116,45.301,21.856,47,24,47s3.885-1.699,3.981-3.818H30v-2H18V43.182z M24,45    c-1.041,0-1.888-0.802-1.981-1.818h3.963C25.889,44.198,25.04,45,24,45z"/><rect height="2" width="5" x="38" y="19"/><rect height="2" width="5" x="5" y="19"/><rect height="5" transform="matrix(0.4999 0.8661 -0.8661 0.4999 29.3244 -27.286)" width="2" x="37.29" y="9.25"/><rect height="5" transform="matrix(-0.4999 -0.8661 0.8661 -0.4999 -9.8994 50.7839)" width="2" x="8.712" y="25.75"/><rect height="4.999" transform="matrix(0.8661 0.4999 -0.4999 0.8661 7.1743 -15.3578)" width="2" x="31.25" y="3.211"/><rect height="2" transform="matrix(0.5 0.866 -0.866 0.5 12.8212 -10.7853)" width="5" x="13.251" y="4.711"/><rect height="2" transform="matrix(-0.866 -0.5001 0.5001 -0.866 57.3214 71.8615)" width="5" x="35.79" y="27.25"/><rect height="2" transform="matrix(0.866 0.5 -0.5 0.866 7.1764 -3.2815)" width="5" x="7.211" y="10.75"/><rect height="5" width="2" x="23" y="1"/><path d="M24,12v2c3.309,0,6,2.691,6,6h2C32,15.589,28.411,12,24,12z"/></g></g><g id="Tea"/><g id="Mouse"/><g id="Shape"/><g id="Eyedropper"/><g id="Laptop"/><g id="Print"/><g id="Size"/><g id="Paint"/><g id="Layer_18"/><g id="Layer_19"/><g id="Layer_20"/><g id="Layer_21"/></svg>