<?xml version="1.0" ?><!DOCTYPE svg  PUBLIC '-//W3C//DTD SVG 1.1//EN'  'http://www.w3.org/Graphics/SVG/1.1/DTD/svg11.dtd'><svg enable-background="new 0 0 256 256" height="256px" id="Layer_1" version="1.1" viewBox="0 0 256 256" width="256px" xml:space="preserve" xmlns="http://www.w3.org/2000/svg" xmlns:xlink="http://www.w3.org/1999/xlink"><g><path clip-rule="evenodd" d="M104.615,138.78c-4.114-3.92-8.228-7.84-12.342-11.762    c-35.926,0.98-45.38,29.541-32.358,59.416c5-13,26.012-14.904,34-21C102.108,159.183,104.459,147.11,104.615,138.78    L104.615,138.78z M95.102,123.679c4.179,3.982,8.359,7.965,12.538,11.947c17.205-13.703,30.025-21.936,45.228-37.791    c25.861-26.969,34.67-46.816,48.113-62.887c13.445-16.07,6.307-22.873-9.191-8.76c-15.5,14.111-34.992,23.777-60.854,50.746    C115.733,92.79,108.06,105.929,95.102,123.679L95.102,123.679z" fill="#2B78C2" fill-rule="evenodd"/><path clip-rule="evenodd" d="M221.689,57.442h-24.574c2.74-4.078,5.533-8.133,8.498-12h16.076    c7.256,0,13.229,5.967,13.229,13.225v134.541c0,2.469-0.691,4.789-1.895,6.777c2.58,1.205,4.742,2.828,6.215,4.695    c-0.025,0.02,9.061,11.939,9.887,12.988c2.363,2.996,5.82,5.885,5.82,9.99c0,5.717-7.334,9.82-12.703,9.82l-228.838-0.047    c-5.238,0-12.35-4.16-12.35-9.656c0-3.65,6.978-11.518,9.378-14.637l5.539-7.869c1.616-2.1,4.17-3.891,7.031-5.117    c-1.266-2.025-2.085-4.408-2.085-6.945V58.667c0-7.256,5.976-13.225,13.23-13.225h115.835c-4.799,3.871-9.449,7.854-13.975,12    H34.147c-0.69,0-1.23,0.531-1.23,1.225v134.541c0,0.691,0.542,1.225,1.23,1.225h187.542c0.689,0,1.229-0.531,1.229-1.225    l-0.094-134.541C222.824,57.974,222.381,57.442,221.689,57.442L221.689,57.442z M26.793,218.444c-2.333,0-3.02-1.703-1.93-3.873    c0.551-1.098,3.364-6.646,4.414-7.35c1.042-0.699,2.228-1.791,3.297-1.791h190.483c1.051,0,2.236,1.092,3.279,1.793    c1.049,0.703,4.111,6.252,4.662,7.348c0.998,1.988,0.381,3.838-1.992,3.838l-65.084,0.041l0.748,4.932    c0.18,1.178-0.811,2.07-1.986,2.068l-68.275-0.053c-1.215,0-2.104-0.814-1.986-2.016l0.486-4.959L26.793,218.444L26.793,218.444z" fill="#3B4552" fill-rule="evenodd"/></g></svg>