<?xml version="1.0" ?><svg viewBox="0 0 64 64" xmlns="http://www.w3.org/2000/svg"><title/><g id="mapping"><path d="M30,50h4a1,1,0,0,0,1-1V46a1,1,0,0,0-1-1H30a1,1,0,0,0-1,1v3A1,1,0,0,0,30,50Zm1-3h2v1H31Z"/><path d="M59,2H5A3,3,0,0,0,2,5V50a3,3,0,0,0,3,3H24l-5.74,7.39A1,1,0,0,0,19,62H45a1,1,0,0,0,.79-1.61L40,53H59a3,3,0,0,0,3-3V5A3,3,0,0,0,59,2ZM4,10H60V42H4ZM4,5A1,1,0,0,1,5,4H59a1,1,0,0,1,1,1V8H4ZM43,60H21l5.44-7h11ZM60,50a1,1,0,0,1-1,1H5a1,1,0,0,1-1-1V44H60Z"/><path d="M10,5H9A1,1,0,0,0,9,7h1a1,1,0,0,0,0-2Z"/><path d="M14,5H13a1,1,0,0,0,0,2h1a1,1,0,0,0,0-2Z"/><path d="M55,5H54a1,1,0,0,0,0,2h1a1,1,0,0,0,0-2Z"/><path d="M56,12H46a1,1,0,0,0-1,1v6a1,1,0,0,0,1,1h4v2H46a1,1,0,0,0-1,1v.83l-5-4.29V16a1,1,0,0,0-1-1H25a1,1,0,0,0-1,1v3.54l-5,4.29V18a1,1,0,0,0-1-1H8a1,1,0,0,0-1,1V34a1,1,0,0,0,1,1H18a1,1,0,0,0,1-1V28.17l5,4.29V36a1,1,0,0,0,1,1H39a1,1,0,0,0,1-1V32.46l5-4.29V29a1,1,0,0,0,1,1h4v2H46a1,1,0,0,0-1,1v6a1,1,0,0,0,1,1H56a1,1,0,0,0,1-1V33a1,1,0,0,0-1-1H52V30h4a1,1,0,0,0,1-1V23a1,1,0,0,0-1-1H52V20h4a1,1,0,0,0,1-1V13A1,1,0,0,0,56,12ZM55,38H47V34h8ZM26,17H38v6H26ZM17,33H9V19h8Zm21,2H26V29H38Zm1-8H25a1,1,0,0,0-1,1v1.83L19.54,26,24,22.17V24a1,1,0,0,0,1,1H39a1,1,0,0,0,1-1V22.17L44.46,26,40,29.83V28A1,1,0,0,0,39,27Zm16,1H47V24h8Zm0-10H47V14h8Z"/></g></svg>